<svg width="24" height="24" viewBox="0 0 24 24" fill="none" xmlns="http://www.w3.org/2000/svg">
<path d="M14.9968 7.00045L8.49677 13.5005C8.09895 13.8983 7.87545 14.4378 7.87545 15.0005C7.87545 15.5631 8.09895 16.1026 8.49677 16.5005C8.8946 16.8983 9.43416 17.1218 9.99677 17.1218C10.5594 17.1218 11.0989 16.8983 11.4968 16.5005L17.9968 10.0005C18.7924 9.2048 19.2394 8.12567 19.2394 7.00045C19.2394 5.87523 18.7924 4.7961 17.9968 4.00045C17.2011 3.2048 16.122 2.75781 14.9968 2.75781C13.8716 2.75781 12.7924 3.2048 11.9968 4.00045L5.49677 10.5005C4.3033 11.6939 3.63281 13.3126 3.63281 15.0005C3.63281 16.6883 4.3033 18.307 5.49677 19.5005C6.69025 20.6939 8.30895 21.3644 9.99677 21.3644C11.6846 21.3644 13.3033 20.6939 14.4968 19.5005L20.9968 13.0005" stroke="#0095FF" stroke-width="1.33333" stroke-linecap="round" stroke-linejoin="round"/>
</svg>
