<svg width="40" height="40" viewBox="0 0 40 40" fill="none" xmlns="http://www.w3.org/2000/svg">
<path d="M33.3524 5H6.65521C6.21622 5 5.79521 5.17431 5.4848 5.48459C5.17439 5.79487 5 6.2157 5 6.65451V33.3429C5 33.7817 5.17439 34.2026 5.4848 34.5129C5.79521 34.8231 6.21622 34.9975 6.65521 34.9975H21.0224V23.3828H17.1161V18.8546H21.0224V15.515C21.0224 11.6409 23.3906 9.5308 26.8487 9.5308C28.0157 9.52664 29.182 9.58612 30.3425 9.70898V13.7587H27.9514C26.0695 13.7587 25.7054 14.6521 25.7054 15.963V18.8546H30.1897L29.6066 23.3828H25.7054V35H33.3448C33.7836 34.9993 34.2042 34.8248 34.5145 34.5147C34.8247 34.2045 34.9993 33.7841 35 33.3455V6.65705C35.0007 6.21913 34.8276 5.7988 34.5188 5.48819C34.21 5.17758 33.7905 5.00202 33.3524 5Z" fill="#ABB3BA"/>
</svg>
