<svg width="21" height="21" viewBox="0 0 21 21" fill="none" xmlns="http://www.w3.org/2000/svg">
<circle cx="10.5" cy="10.5" r="10.5" fill="#54585A"/>
<path d="M11.6335 11.3935L12.5316 12.516L13.3865 13.4842L15.029 15.5H13.1127L11.9841 14.139L11.4174 13.3532L9.88536 11.3935H11.6335ZM15.1875 9.92027C15.1875 10.9367 14.9874 11.816 14.5872 12.5581C14.1901 13.2971 13.6442 13.863 12.9495 14.2559C12.2547 14.6457 11.4686 14.8405 10.5913 14.8405C9.71406 14.8405 8.92642 14.6457 8.22844 14.2559C7.53365 13.863 6.98775 13.2955 6.59073 12.5535C6.19691 11.8114 6 10.9336 6 9.92027C6 8.90379 6.19691 8.0245 6.59073 7.2824C6.98775 6.53719 7.53365 5.97127 8.22844 5.58463C8.92642 5.19488 9.71406 5 10.5913 5C11.4686 5 12.2547 5.19488 12.9495 5.58463C13.6442 5.97127 14.1901 6.53719 14.5872 7.2824C14.9874 8.0245 15.1875 8.90379 15.1875 9.92027ZM13.1176 9.92027C13.1176 9.24677 13.0135 8.67461 12.8054 8.20379C12.6005 7.72984 12.3075 7.37127 11.9265 7.12806C11.5487 6.88486 11.1036 6.76325 10.5913 6.76325C10.0823 6.76325 9.63882 6.88486 9.26101 7.12806C8.8832 7.37127 8.59024 7.72984 8.38212 8.20379C8.17401 8.67461 8.06995 9.24677 8.06995 9.92027C8.06995 10.5938 8.17401 11.1659 8.38212 11.6367C8.59024 12.1076 8.8832 12.4661 9.26101 12.7125C9.63882 12.9557 10.0823 13.0773 10.5913 13.0773C11.1036 13.0773 11.5487 12.9557 11.9265 12.7125C12.3075 12.4661 12.6005 12.1076 12.8054 11.6367C13.0135 11.1659 13.1176 10.5938 13.1176 9.92027Z" fill="white"/>
</svg>
