<svg width="10" height="19" viewBox="0 0 10 19" fill="none" xmlns="http://www.w3.org/2000/svg">
<g clip-path="url(#clip0_982_14030)">
<path d="M1.64274 9.15502L9.27537 16.8629C9.42387 17.0027 9.49316 17.1824 9.49316 17.3921C9.49316 17.6018 9.41397 17.7715 9.27537 17.9213C9.12688 18.071 8.95858 18.1409 8.75069 18.1409C8.5428 18.1409 8.3745 18.071 8.22601 17.9213L0.662677 10.2932C0.504283 10.1335 0.385486 9.95376 0.31619 9.75408C0.246892 9.55439 0.207293 9.3547 0.207293 9.15502C0.207293 8.95533 0.246892 8.75564 0.31619 8.55595C0.385487 8.35627 0.504283 8.17655 0.662678 8.0168L8.22601 0.388758C8.37451 0.238991 8.5428 0.169102 8.75069 0.169102C8.95858 0.169102 9.12688 0.248976 9.27537 0.388758C9.42387 0.538523 9.49317 0.708258 9.49317 0.917929C9.49317 1.1276 9.42387 1.29733 9.27537 1.4471L1.64274 9.14503L1.64274 9.15502Z" fill="white"/>
</g>
<defs>
<clipPath id="clip0_982_14030">
<rect width="9.29577" height="17.9718" fill="white" transform="translate(9.49316 18.1409) rotate(-180)"/>
</clipPath>
</defs>
</svg>
