<svg width="10" height="19" viewBox="0 0 10 19" fill="none" xmlns="http://www.w3.org/2000/svg">
<g clip-path="url(#clip0_982_14041)">
<path d="M8.35738 9.84498L0.72475 2.13707C0.576256 1.99729 0.506958 1.81757 0.506958 1.6079C0.506958 1.39822 0.586155 1.22849 0.72475 1.07873C0.873245 0.92896 1.04154 0.85907 1.24943 0.85907C1.45732 0.85907 1.62562 0.92896 1.77411 1.07873L9.33745 8.70677C9.49584 8.86652 9.61464 9.04624 9.68393 9.24592C9.75323 9.44561 9.79283 9.6453 9.79283 9.84498C9.79283 10.0447 9.75323 10.2444 9.68393 10.444C9.61464 10.6437 9.49584 10.8234 9.33745 10.9832L1.77411 18.6112C1.62562 18.761 1.45732 18.8309 1.24943 18.8309C1.04154 18.8309 0.873245 18.751 0.72475 18.6112C0.576256 18.4615 0.506958 18.2917 0.506958 18.0821C0.506958 17.8724 0.576256 17.7027 0.72475 17.5529L8.35738 9.85497V9.84498Z" fill="white"/>
</g>
<defs>
<clipPath id="clip0_982_14041">
<rect width="9.29577" height="17.9718" fill="white" transform="translate(0.506958 0.85907)"/>
</clipPath>
</defs>
</svg>
