<svg width="111" height="111" viewBox="0 0 111 111" fill="none" xmlns="http://www.w3.org/2000/svg">
<circle cx="55.5" cy="55.5" r="55.5" fill="black"/>
<path d="M55.9991 33.5C61.8387 38.6664 69.4603 41.3564 77.2491 41C78.3831 44.8575 78.7301 48.9037 78.2694 52.898C77.8088 56.8922 76.5499 60.7532 74.5676 64.2513C72.5853 67.7495 69.9201 70.8135 66.7302 73.2612C63.5404 75.7089 59.8911 77.4905 55.9991 78.5C52.1071 77.4905 48.4578 75.7089 45.268 73.2612C42.0781 70.8135 39.4129 67.7495 37.4306 64.2513C35.4483 60.7532 34.1894 56.8922 33.7288 52.898C33.2681 48.9037 33.6151 44.8575 34.7491 41C42.5379 41.3564 50.1595 38.6664 55.9991 33.5Z" stroke="#00E0D8" stroke-width="2" stroke-linecap="round" stroke-linejoin="round"/>
<path d="M56 33.5V78.5" stroke="#00E0D8" stroke-width="2" stroke-linecap="round" stroke-linejoin="round"/>
</svg>
