<svg width="21" height="20" viewBox="0 0 21 20" fill="none" xmlns="http://www.w3.org/2000/svg">
<g clip-path="url(#clip0_2002_2374)">
<path d="M9.98638 0C4.52296 0 0.0351562 4.4878 0.0351562 9.95122C0.0351562 15.4146 4.52296 20 9.98638 20C15.5474 20 19.9376 15.5122 19.9376 9.95122C19.9376 4.39024 15.5474 0 9.98638 0ZM14.2791 8.97561C14.2791 8.68293 14.2791 8.39024 14.2791 8.09756V7.90244H17.8888C18.0839 8.58537 18.1815 9.26829 18.1815 9.85366C18.1815 10.439 18.0839 11.2195 17.8888 11.8049L17.7913 12H14.1815V11.9024C14.2791 11.2195 14.2791 10.5366 14.2791 9.95122C14.3766 9.65854 14.3766 9.26829 14.2791 8.97561ZM12.523 2.2439L12.7181 2.34146C14.6693 3.02439 16.1327 4.29268 17.1083 5.95122L17.2059 6.04878H14.0839C13.6937 4.87805 13.2059 3.70732 12.6205 2.43902L12.523 2.2439ZM12.7181 17.6585C13.3034 16.3902 13.7913 15.2195 13.9864 14.0488V13.9512H17.0108C16.1327 15.7073 14.5717 16.9756 12.7181 17.6585ZM7.35223 2.34146C6.76686 3.70732 6.37662 4.87805 6.08394 5.95122V6.04878H2.96199L3.05955 5.95122C3.9376 4.29268 5.49857 3.02439 7.35223 2.34146ZM12.6205 9.95122C12.6205 10.6341 12.523 11.3171 12.4254 12H7.64491V11.9024C7.54735 11.2195 7.44979 10.5366 7.44979 9.85366C7.44979 9.17073 7.54735 8.48781 7.64491 7.80488H12.4254V7.90244C12.523 8.68293 12.6205 9.36585 12.6205 9.95122ZM8.03516 6.04878C8.4254 4.58537 9.10833 3.21951 9.98638 1.95122L10.0839 1.85366V1.95122C10.962 3.21951 11.6449 4.58537 12.0352 5.95122V6.04878H8.03516ZM6.08394 13.9512C6.37662 15.122 6.86442 16.3902 7.44979 17.561L7.54735 17.7561L7.35223 17.6585C5.40101 16.9756 3.9376 15.7073 2.96199 14.0488V13.9512H6.08394ZM12.0352 13.9512C11.4498 15.7073 10.8644 16.9756 10.0839 18.0488L9.98638 18.1463L9.88881 18.0488C9.01077 16.7805 8.32784 15.4146 7.9376 14.0488V13.9512H12.0352ZM5.79125 11.122C5.79125 11.4146 5.79125 11.7073 5.79125 12V12.1951H2.1815L2.08394 12C1.88881 11.3171 1.79125 10.6341 1.79125 10.0488C1.79125 9.46342 1.88881 8.68293 2.08394 8.09756V8H5.69369V8.09756C5.59613 8.78049 5.59613 9.36585 5.59613 10.0488C5.69369 10.439 5.69369 10.8293 5.79125 11.122Z" fill="white"/>
</g>
<defs>
<clipPath id="clip0_2002_2374">
<rect width="20" height="20" fill="white" transform="translate(0.0351562)"/>
</clipPath>
</defs>
</svg>
