<svg width="40" height="40" viewBox="0 0 40 40" fill="none" xmlns="http://www.w3.org/2000/svg">
<path d="M21.713 3.33301C23.588 3.33801 24.5396 3.34801 25.3613 3.37134L25.6846 3.38301C26.058 3.39634 26.4263 3.41301 26.8713 3.43301C28.6446 3.51634 29.8546 3.79634 30.9163 4.20801C32.0163 4.63134 32.943 5.20467 33.8696 6.12967C34.7175 6.96256 35.3733 7.97046 35.7913 9.08301C36.203 10.1447 36.483 11.3547 36.5663 13.1297C36.5863 13.573 36.603 13.9413 36.6163 14.3163L36.6263 14.6397C36.6513 15.4597 36.6613 16.4113 36.6646 18.2863L36.6663 19.5297V21.713C36.6704 22.9287 36.6576 24.1444 36.628 25.3597L36.618 25.683C36.6046 26.058 36.588 26.4263 36.568 26.8697C36.4846 28.6447 36.2013 29.853 35.7913 30.9163C35.3733 32.0289 34.7175 33.0368 33.8696 33.8697C33.0368 34.7175 32.0289 35.3733 30.9163 35.7913C29.8546 36.203 28.6446 36.483 26.8713 36.5663L25.6846 36.6163L25.3613 36.6263C24.5396 36.6497 23.588 36.6613 21.713 36.6647L20.4696 36.6663H18.288C17.0717 36.6706 15.8555 36.6578 14.6396 36.628L14.3163 36.618C13.9207 36.603 13.5251 36.5858 13.1296 36.5663C11.3563 36.483 10.1463 36.203 9.08298 35.7913C7.97103 35.3731 6.96372 34.7173 6.13131 33.8697C5.28289 33.037 4.62649 32.029 4.20798 30.9163C3.79631 29.8547 3.51631 28.6447 3.43298 26.8697L3.38298 25.683L3.37465 25.3597C3.34392 24.1444 3.33003 22.9287 3.33298 21.713V18.2863C3.32837 17.0707 3.34059 15.855 3.36965 14.6397L3.38131 14.3163C3.39465 13.9413 3.41131 13.573 3.43131 13.1297C3.51465 11.3547 3.79465 10.1463 4.20631 9.08301C4.6258 7.97001 5.28335 6.96207 6.13298 6.12967C6.9649 5.28226 7.97163 4.62646 9.08298 4.20801C10.1463 3.79634 11.3546 3.51634 13.1296 3.43301C13.573 3.41301 13.943 3.39634 14.3163 3.38301L14.6396 3.37301C15.855 3.3434 17.0706 3.33062 18.2863 3.33467L21.713 3.33301ZM19.9996 11.6663C17.7895 11.6663 15.6699 12.5443 14.1071 14.1071C12.5443 15.6699 11.6663 17.7895 11.6663 19.9997C11.6663 22.2098 12.5443 24.3294 14.1071 25.8922C15.6699 27.455 17.7895 28.333 19.9996 28.333C22.2098 28.333 24.3294 27.455 25.8922 25.8922C27.455 24.3294 28.333 22.2098 28.333 19.9997C28.333 17.7895 27.455 15.6699 25.8922 14.1071C24.3294 12.5443 22.2098 11.6663 19.9996 11.6663ZM19.9996 14.9997C20.6563 14.9996 21.3065 15.1288 21.9131 15.38C22.5198 15.6311 23.0711 15.9993 23.5354 16.4636C23.9998 16.9278 24.3682 17.4789 24.6196 18.0855C24.8709 18.6921 25.0004 19.3422 25.0005 19.9988C25.0006 20.6555 24.8714 21.3057 24.6202 21.9123C24.369 22.519 24.0008 23.0702 23.5366 23.5346C23.0724 23.999 22.5213 24.3674 21.9147 24.6188C21.3081 24.8701 20.6579 24.9996 20.0013 24.9997C18.6752 24.9997 17.4035 24.4729 16.4658 23.5352C15.5281 22.5975 15.0013 21.3258 15.0013 19.9997C15.0013 18.6736 15.5281 17.4018 16.4658 16.4641C17.4035 15.5265 18.6752 14.9997 20.0013 14.9997M28.7513 9.16634C28.1988 9.16634 27.6689 9.38583 27.2782 9.77654C26.8875 10.1672 26.668 10.6971 26.668 11.2497C26.668 11.8022 26.8875 12.3321 27.2782 12.7228C27.6689 13.1135 28.1988 13.333 28.7513 13.333C29.3038 13.333 29.8337 13.1135 30.2245 12.7228C30.6152 12.3321 30.8346 11.8022 30.8346 11.2497C30.8346 10.6971 30.6152 10.1672 30.2245 9.77654C29.8337 9.38583 29.3038 9.16634 28.7513 9.16634Z" fill="#ABB3BA"/>
</svg>
