<svg width="111" height="111" viewBox="0 0 111 111" fill="none" xmlns="http://www.w3.org/2000/svg">
<circle cx="55.5" cy="55.5" r="55.5" fill="black"/>
<path d="M68.5 41C68.5 42.3261 69.0268 43.5979 69.9645 44.5355C70.9021 45.4732 72.1739 46 73.5 46C74.8261 46 76.0979 45.4732 77.0355 44.5355C77.9732 43.5979 78.5 42.3261 78.5 41C78.5 39.6739 77.9732 38.4021 77.0355 37.4645C76.0979 36.5268 74.8261 36 73.5 36C72.1739 36 70.9021 36.5268 69.9645 37.4645C69.0268 38.4021 68.5 39.6739 68.5 41Z" stroke="#FF8200" stroke-width="2" stroke-linecap="round" stroke-linejoin="round"/>
<path d="M68.5 71C68.5 72.3261 69.0268 73.5979 69.9645 74.5355C70.9021 75.4732 72.1739 76 73.5 76C74.8261 76 76.0979 75.4732 77.0355 74.5355C77.9732 73.5979 78.5 72.3261 78.5 71C78.5 69.6739 77.9732 68.4021 77.0355 67.4645C76.0979 66.5268 74.8261 66 73.5 66C72.1739 66 70.9021 66.5268 69.9645 67.4645C69.0268 68.4021 68.5 69.6739 68.5 71Z" stroke="#FF8200" stroke-width="2" stroke-linecap="round" stroke-linejoin="round"/>
<path d="M33.5 56C33.5 57.3261 34.0268 58.5979 34.9645 59.5355C35.9021 60.4732 37.1739 61 38.5 61C39.8261 61 41.0979 60.4732 42.0355 59.5355C42.9732 58.5979 43.5 57.3261 43.5 56C43.5 54.6739 42.9732 53.4021 42.0355 52.4645C41.0979 51.5268 39.8261 51 38.5 51C37.1739 51 35.9021 51.5268 34.9645 52.4645C34.0268 53.4021 33.5 54.6739 33.5 56Z" stroke="#FF8200" stroke-width="2" stroke-linecap="round" stroke-linejoin="round"/>
<path d="M43.5 56H51L59.75 71H68.5" stroke="#FF8200" stroke-width="2" stroke-linecap="round" stroke-linejoin="round"/>
<path d="M68.5 41H59.75L51 56" stroke="#FF8200" stroke-width="2" stroke-linecap="round" stroke-linejoin="round"/>
</svg>
